<?xml version="1.0" encoding="utf-8"?><svg version="1.1" id="Layer_1" xmlns="http://www.w3.org/2000/svg" xmlns:xlink="http://www.w3.org/1999/xlink" x="0px" y="0px" viewBox="0 0 122.88 98.94" style="enable-background:new 0 0 122.88 98.94" xml:space="preserve"><style type="text/css">.st0{fill-rule:evenodd;clip-rule:evenodd;}</style><g><path class="st0" d="M93.78,43.98v35.04h-8.19V73.6H37.29v5.41l-8.19,0V43.98h-2.82v-5.39h6.89L37,26.64 c1.13-3.52,3.02-6.72,6.72-6.72h36.86c3.7,0,5.83,3.14,6.72,6.72l2.97,11.95h6.33v5.39H93.78L93.78,43.98L93.78,43.98z M10.85,0 c-2.99,0-5.7,1.22-7.67,3.19C1.22,5.15,0,7.86,0,10.85v77.24c0,2.99,1.22,5.7,3.19,7.67c1.97,1.97,4.68,3.19,7.67,3.19 c33.73,0,67.45,0,101.18,0c2.99,0,5.7-1.22,7.67-3.19c1.97-1.97,3.19-4.68,3.19-7.67V10.85c0-2.99-1.22-5.7-3.19-7.67 C117.73,1.22,115.02,0,112.03,0C78.3,0,44.58,0,10.85,0L10.85,0z M12.08,92.53c-1.56,0-2.97-0.64-4-1.67 c-1.03-1.03-1.67-2.44-1.67-4V12.08c0-1.56,0.64-2.97,1.67-4c1.03-1.03,2.44-1.67,4-1.67c33.73,0,64.99,0,98.72,0 c1.56,0,2.97,0.64,4,1.67c1.03,1.03,1.67,2.44,1.67,4v74.78c0,1.56-0.64,2.97-1.67,4c-1.03,1.03-2.44,1.67-4,1.67 C77.48,92.53,45.4,92.53,12.08,92.53L12.08,92.53z M49.17,62.79h24.19v5.7l-24.19,0V62.79L49.17,62.79L49.17,62.79z M31.84,49.51 c6.17,0.19,9.94,2.78,10.91,8.16H31.84V49.51L31.84,49.51z M90.27,49.51c-6.16,0.19-9.94,2.78-10.9,8.16h10.9V49.51L90.27,49.51z M36.11,38.59h50.67L84.6,28.57c-0.6-2.75-2.31-5.12-5.12-5.12H44.44c-2.82,0-4.26,2.44-5.12,5.12L36.11,38.59L36.11,38.59 L36.11,38.59z"/></g></svg>